<svg width="170" height="170" viewBox="0 0 170 170" fill="none" xmlns="http://www.w3.org/2000/svg">
<mask id="mask0_636_5258" style="mask-type:luminance" maskUnits="userSpaceOnUse" x="13" y="13" width="144" height="144">
<path d="M84.9989 155.833C94.3026 155.844 103.517 154.017 112.112 150.457C120.708 146.896 128.515 141.673 135.085 135.086C141.672 128.515 146.896 120.708 150.456 112.113C154.017 103.517 155.844 94.303 155.832 84.9994C155.844 75.6958 154.017 66.4815 150.456 57.8861C146.896 49.2907 141.672 41.4836 135.085 34.9132C128.515 28.3262 120.708 23.1025 112.112 19.542C103.517 15.9816 94.3026 14.1546 84.9989 14.1661C75.6953 14.1546 66.4811 15.9816 57.8857 19.542C49.2902 23.1025 41.4831 28.3262 34.9127 34.9132C28.3257 41.4836 23.102 49.2907 19.5415 57.8861C15.9811 66.4815 14.1541 75.6958 14.1656 84.9994C14.1541 94.303 15.9811 103.517 19.5415 112.113C23.102 120.708 28.3257 128.515 34.9127 135.086C41.4831 141.673 49.2902 146.896 57.8857 150.457C66.4811 154.017 75.6953 155.844 84.9989 155.833Z" fill="#555555" stroke="white" stroke-width="1.97674" stroke-linejoin="round"/>
<path d="M56.6655 84.999L77.9155 106.249L120.416 63.749" stroke="white" stroke-width="1.97674" stroke-linecap="round" stroke-linejoin="round"/>
</mask>
<g mask="url(#mask0_636_5258)">
<path d="M-0.000488281 0H170V170H-0.000488281V0Z" fill="#58C185"/>
</g>
</svg>
