<svg width="170" height="170" viewBox="0 0 170 170" fill="none" xmlns="http://www.w3.org/2000/svg">
<mask id="mask0_398_2717" style="mask-type:luminance" maskUnits="userSpaceOnUse" x="13" y="13" width="144" height="144">
<path d="M84.9989 155.833C94.3026 155.845 103.517 154.018 112.112 150.457C120.708 146.897 128.515 141.673 135.085 135.086C141.672 128.516 146.896 120.709 150.456 112.113C154.017 103.518 155.844 94.3035 155.832 84.9999C155.844 75.6963 154.017 66.482 150.456 57.8866C146.896 49.2912 141.672 41.484 135.085 34.9136C128.515 28.3267 120.708 23.103 112.112 19.5425C103.517 15.9821 94.3026 14.1551 84.9989 14.1666C75.6953 14.1551 66.4811 15.9821 57.8857 19.5425C49.2902 23.103 41.4831 28.3267 34.9127 34.9136C28.3257 41.484 23.102 49.2912 19.5415 57.8866C15.9811 66.482 14.1541 75.6963 14.1656 84.9999C14.1541 94.3035 15.9811 103.518 19.5415 112.113C23.102 120.709 28.3257 128.516 34.9127 135.086C41.4831 141.673 49.2902 146.897 57.8857 150.457C66.4811 154.018 75.6953 155.845 84.9989 155.833Z" fill="#555555" stroke="white" stroke-width="1.97674" stroke-linejoin="round"/>
<path d="M56.6655 84.9995L77.9155 106.25L120.416 63.7495" stroke="white" stroke-width="1.97674" stroke-linecap="round" stroke-linejoin="round"/>
</mask>
<g mask="url(#mask0_398_2717)">
<path d="M-0.000488281 0H170V170H-0.000488281V0Z" fill="#65CCB2"/>
</g>
</svg>
