<svg width="35" height="35" viewBox="0 0 35 35" fill="none" xmlns="http://www.w3.org/2000/svg">
<path d="M17.4996 29.4016C10.9196 29.4016 5.59961 24.0816 5.59961 17.5016C5.59961 10.9216 10.9196 5.60156 17.4996 5.60156C24.0796 5.60156 29.3996 10.9216 29.3996 17.5016C29.3996 24.0816 24.0796 29.4016 17.4996 29.4016ZM17.4996 7.00156C11.6896 7.00156 6.99961 11.6916 6.99961 17.5016C6.99961 23.3116 11.6896 28.0016 17.4996 28.0016C23.3096 28.0016 27.9996 23.3116 27.9996 17.5016C27.9996 11.6916 23.3096 7.00156 17.4996 7.00156Z" fill="#666666"/>
<path d="M16.0998 22.6786L10.0098 16.5886L10.9898 15.6086L16.0998 20.7186L24.0098 12.8086L24.9898 13.7886L16.0998 22.6786Z" fill="#666666"/>
</svg>
