<svg width="120" height="120" viewBox="0 0 120 120" fill="none" xmlns="http://www.w3.org/2000/svg">
<mask id="mask0_902_7515" style="mask-type:alpha" maskUnits="userSpaceOnUse" x="0" y="0" width="120" height="120">
<rect width="120" height="120" fill="#D9D9D9"/>
</mask>
<g mask="url(#mask0_902_7515)">
<path d="M39.9073 34.8357L32.6961 11.5123C31.9884 9.23049 33.2256 6.79465 35.493 6.02924C40.3983 4.37807 49.5688 2 61.7191 2C73.8694 2 82.2841 4.20958 87.0691 5.82224C89.4135 6.61172 90.6459 9.16791 89.8131 11.493L81.0133 35.9958C80.426 37.6277 78.9481 38.7638 77.2199 38.9034C70.4082 39.4522 52.9819 40.492 42.969 37.7914C41.5103 37.3966 40.355 36.2798 39.9121 34.8357H39.9073Z" fill="#49CA7F"/>
<path d="M36.7494 20.9609C22.6591 20.9609 11.2405 32.3843 11.2405 46.4698C11.2405 56.4972 17.0268 65.1719 25.4367 69.3407C17.0268 73.5095 11.2405 82.189 11.2405 92.2116C11.2405 106.302 22.6591 117.72 36.7494 117.72C46.7767 117.72 55.4514 111.939 59.6202 103.524C63.7891 111.939 72.4637 117.72 82.4911 117.72C96.5814 117.72 108 106.297 108 92.2116C108 82.1842 102.218 73.5095 93.8038 69.3407C102.218 65.1719 108 56.4972 108 46.4698C108 32.3795 96.5766 20.9609 82.4911 20.9609C72.4637 20.9609 63.7891 26.7473 59.6202 35.1571C55.4514 26.7424 46.7767 20.9609 36.7494 20.9609Z" fill="url(#paint0_linear_902_7515)"/>
<path d="M47.8889 50.1758C47.8889 50.1758 50.7965 52.6694 59.3316 52.6694C67.8666 52.6694 71.0823 50.248 71.0823 50.248" stroke="black" stroke-width="1.6006" stroke-miterlimit="10" stroke-linecap="round"/>
<path d="M57.0882 46.5467C57.0882 46.5467 55.5911 44.1445 53.4778 44.1445C51.3645 44.1445 49.4534 46.4023 49.4534 46.4023" stroke="black" stroke-width="1.6006" stroke-miterlimit="10" stroke-linecap="round"/>
<path d="M69.0699 46.5467C69.0699 46.5467 67.5728 44.1445 65.4595 44.1445C63.3462 44.1445 61.4351 46.4023 61.4351 46.4023" stroke="black" stroke-width="1.6006" stroke-miterlimit="10" stroke-linecap="round"/>
<path d="M64.0202 7.50391C62.3738 7.50391 60.9393 8.41373 60.1931 9.76163C59.447 8.41855 58.0124 7.50391 56.3661 7.50391C53.9495 7.50391 51.9902 9.46317 51.9902 11.8797C51.9902 17.0932 59.7695 20.1212 60.1931 20.1212C60.6168 20.1212 68.396 17.0932 68.396 11.8797C68.396 9.46317 66.4368 7.50391 64.0202 7.50391Z" fill="white"/>
</g>
<defs>
<linearGradient id="paint0_linear_902_7515" x1="17.4841" y1="16.845" x2="96.9232" y2="115.814" gradientUnits="userSpaceOnUse">
<stop stop-color="#9CE0B9"/>
<stop offset="1" stop-color="#49CA7F"/>
</linearGradient>
</defs>
</svg>
