<svg width="120" height="120" viewBox="0 0 120 120" fill="none" xmlns="http://www.w3.org/2000/svg">
<path d="M60 75C69.7442 74.9979 79.1541 78.5527 86.463 84.9971C93.7718 91.4415 98.477 100.332 99.695 110H20.315C21.5328 100.334 26.2365 91.4446 33.5433 85.0004C40.85 78.5563 50.2575 75.0003 60 75ZM50.94 86.4C43.801 88.6688 37.7644 93.518 34.01 100H60.005L50.94 86.4ZM69.07 86.4L60.005 100H85.995C82.2418 93.5189 76.2072 88.6698 69.07 86.4ZM90.005 10V40C90.005 47.9572 86.844 55.5884 81.2175 61.215C75.5909 66.8415 67.9597 70.0025 60.0025 70.0025C52.0453 70.0025 44.4141 66.8415 38.7875 61.215C33.161 55.5884 30 47.9572 30 40V10H90.005ZM40 40C40 45.3043 42.1071 50.3914 45.8579 54.1421C49.6086 57.8929 54.6957 60 60 60C65.3043 60 70.3914 57.8929 74.1421 54.1421C77.8929 50.3914 80 45.3043 80 40H40ZM80 20H40V30H80V20Z" fill="black"/>
</svg>
