<svg width="25" height="24" viewBox="0 0 25 24" fill="none" xmlns="http://www.w3.org/2000/svg">
<path d="M12.5 2C6.97 2 2.5 6.47 2.5 12C2.5 17.53 6.97 22 12.5 22C18.03 22 22.5 17.53 22.5 12C22.5 6.47 18.03 2 12.5 2ZM16.8 16.3C16.7075 16.3927 16.5976 16.4663 16.4766 16.5164C16.3557 16.5666 16.226 16.5924 16.095 16.5924C15.964 16.5924 15.8343 16.5666 15.7134 16.5164C15.5924 16.4663 15.4825 16.3927 15.39 16.3L12.5 13.41L9.61 16.3C9.42302 16.487 9.16943 16.592 8.905 16.592C8.64057 16.592 8.38698 16.487 8.2 16.3C8.01302 16.113 7.90798 15.8594 7.90798 15.595C7.90798 15.4641 7.93377 15.3344 7.98387 15.2135C8.03398 15.0925 8.10742 14.9826 8.2 14.89L11.09 12L8.2 9.11C8.01302 8.92302 7.90798 8.66943 7.90798 8.405C7.90798 8.14057 8.01302 7.88698 8.2 7.7C8.38698 7.51302 8.64057 7.40798 8.905 7.40798C9.16943 7.40798 9.42302 7.51302 9.61 7.7L12.5 10.59L15.39 7.7C15.4826 7.60742 15.5925 7.53398 15.7135 7.48387C15.8344 7.43377 15.9641 7.40798 16.095 7.40798C16.2259 7.40798 16.3556 7.43377 16.4765 7.48387C16.5975 7.53398 16.7074 7.60742 16.8 7.7C16.8926 7.79258 16.966 7.90249 17.0161 8.02346C17.0662 8.14442 17.092 8.27407 17.092 8.405C17.092 8.53593 17.0662 8.66558 17.0161 8.78654C16.966 8.90751 16.8926 9.01742 16.8 9.11L13.91 12L16.8 14.89C17.18 15.27 17.18 15.91 16.8 16.3Z" fill="#2D8859"/>
</svg>
