<svg width="275" height="75" viewBox="0 0 275 75" fill="none" xmlns="http://www.w3.org/2000/svg">
<path d="M65.6443 44.1254C66.6616 44.1254 67.3398 44.8036 67.3398 45.8209V51.1617C67.3398 52.179 66.6616 52.8572 65.6443 52.8572H39.1946V72.3554C39.1946 73.3727 38.5164 74.0509 37.4991 74.0509H30.3781C29.3608 74.0509 28.6826 73.3727 28.6826 72.3554V52.8572H2.23285C1.21555 52.8572 0.537354 52.179 0.537354 51.1617V45.8209C0.537354 44.8036 1.21555 44.1254 2.23285 44.1254H65.6443ZM12.4058 36.8348C7.31933 36.8348 3.92834 33.4438 3.92834 28.3573V3.26399C3.92834 2.24669 4.60654 1.5685 5.62384 1.5685H12.4058C13.4231 1.5685 14.1013 2.24669 14.1013 3.26399V13.1826C22.494 11.7415 33.769 10.9785 45.2984 10.9785H53.7759V3.26399C53.7759 2.24669 54.4541 1.5685 55.4714 1.5685H62.2533C63.2706 1.5685 63.9488 2.24669 63.9488 3.26399V28.3573C63.9488 33.4438 60.5579 36.8348 55.4714 36.8348H12.4058ZM14.1013 26.8314C14.1013 27.8487 14.7795 28.5269 15.7968 28.5269H52.0804C53.0977 28.5269 53.7759 27.8487 53.7759 26.8314V19.1169H45.2984C33.1756 19.1169 21.9854 19.9646 14.1013 21.5753V26.8314Z" fill="#58C185"/>
<path d="M81.8694 31.9179C81.8694 32.9351 82.5476 33.6133 83.5649 33.6133H86.1929C94.2465 33.6133 103.572 32.8504 113.151 31.1549C114.253 30.9853 115.101 31.494 115.186 32.4265L115.949 37.0891C116.034 38.0216 115.695 38.7846 114.762 38.9542C104.759 40.8192 94.4161 41.6669 82.5476 41.6669H80.0044C74.9179 41.6669 71.5269 38.276 71.5269 33.1895V10.3851C71.5269 5.29859 74.9179 1.9076 80.0044 1.9076H107.98C108.997 1.9076 109.676 2.58579 109.676 3.60309V8.43525C109.676 9.45255 108.997 10.1307 107.98 10.1307H83.5649C82.5476 10.1307 81.8694 10.8089 81.8694 11.8262V17.4214H106.115C107.132 17.4214 107.81 18.0996 107.81 19.1169V23.8643C107.81 24.8815 107.132 25.5597 106.115 25.5597H81.8694V31.9179ZM121.374 1.99237C121.374 0.975074 122.053 0.296875 123.07 0.296875H130.021C131.039 0.296875 131.717 0.975074 131.717 1.99237V17.93H139.092C140.11 17.93 140.788 18.6082 140.788 19.6255V25.3902C140.788 26.4075 140.11 27.0857 139.092 27.0857H131.717V42.3451C131.717 43.3624 131.039 44.0406 130.021 44.0406H123.07C122.053 44.0406 121.374 43.3624 121.374 42.3451V1.99237ZM123.07 74.0509C122.053 74.0509 121.374 73.3727 121.374 72.3554V57.6894C121.374 56.6721 120.696 55.9939 119.679 55.9939H76.3591C75.3418 55.9939 74.6636 55.3157 74.6636 54.2984V49.1271C74.6636 48.1098 75.3418 47.4316 76.3591 47.4316H123.409C128.496 47.4316 131.887 50.8226 131.887 55.9091V72.3554C131.887 73.3727 131.208 74.0509 130.191 74.0509H123.07Z" fill="#58C185"/>
<path d="M233.715 71.5924C220.066 71.5924 213.03 58.6219 213.03 36.3261C213.03 14.0304 220.066 1.05985 233.715 1.05985C246.092 1.05985 253.043 11.7415 254.23 30.4767H264.488V1.99237C264.488 0.975074 265.166 0.296875 266.184 0.296875H273.305C274.322 0.296875 275 0.975074 275 1.99237V72.3554C275 73.3727 274.322 74.0509 273.305 74.0509H266.184C265.166 74.0509 264.488 73.3727 264.488 72.3554V39.2933H254.315C253.722 59.8087 246.77 71.5924 233.715 71.5924ZM233.715 62.9454C241.09 62.9454 244.312 53.3659 244.312 36.3261C244.312 19.2864 241.09 9.70687 233.715 9.70687C226.339 9.70687 223.118 19.2864 223.118 36.3261C223.118 53.3659 226.339 62.9454 233.715 62.9454Z" fill="#58C185"/>
<path d="M182.68 2.33147C182.68 1.31417 183.359 0.635975 184.376 0.635975H190.819C191.836 0.635975 192.514 1.31417 192.514 2.33147V71.5076C192.514 72.5249 191.836 73.2031 190.819 73.2031H184.376C183.359 73.2031 182.68 72.5249 182.68 71.5076V37.8521H173.016C168.777 53.0268 161.232 62.9454 153.857 69.4731C152.925 70.3208 151.907 70.0665 151.229 69.2187L147.16 63.7931C146.397 62.7759 146.821 62.0129 147.923 61.0804C154.45 55.7395 160.3 47.4316 163.776 35.987H146.99C145.973 35.987 145.295 35.3088 145.295 34.2915V28.9507C145.295 27.9334 145.973 27.2552 146.99 27.2552H165.81C166.573 22.7622 166.997 17.8452 166.997 12.5892C166.997 11.5719 166.319 10.8937 165.302 10.8937H147.923C146.906 10.8937 146.227 10.2155 146.227 9.19822V3.94219C146.227 2.92489 146.906 2.24669 147.923 2.24669H167.93C173.016 2.24669 176.407 5.63768 176.407 10.7242C176.407 17.5061 175.898 23.6099 174.881 29.2051H182.68V2.33147ZM198.872 1.99237C198.872 0.975074 199.551 0.296875 200.568 0.296875H207.18C208.198 0.296875 208.876 0.975074 208.876 1.99237V72.3554C208.876 73.3727 208.198 74.0509 207.18 74.0509H200.568C199.551 74.0509 198.872 73.3727 198.872 72.3554V1.99237Z" fill="#58C185"/>
</svg>
