<svg width="382" height="90" viewBox="0 0 382 90" fill="none" xmlns="http://www.w3.org/2000/svg">
<path fill-rule="evenodd" clip-rule="evenodd" d="M89.0142 23.4672C89.0142 10.5066 78.5076 0 65.5471 0C56.3233 0 48.3425 5.32144 44.5071 13.0617C40.6717 5.32147 32.6909 5.2272e-05 23.4672 5.2272e-05C10.5066 5.2272e-05 0 10.5067 0 23.4672C0 32.6908 5.32123 40.6715 13.0612 44.507C5.32123 48.3424 0 56.3231 0 65.5467C0 78.5072 10.5066 89.0139 23.4672 89.0139C32.6909 89.0139 40.6718 83.6924 44.5071 75.9522C48.3425 83.6924 56.3233 89.0139 65.5471 89.0139C78.5076 89.0139 89.0142 78.5072 89.0142 65.5467C89.0142 56.3231 83.693 48.3424 75.9529 44.5069C83.693 40.6715 89.0142 32.6908 89.0142 23.4672Z" fill="#58C185"/>
<path d="M172.644 49.1254C173.662 49.1254 174.34 49.8036 174.34 50.8209V56.1617C174.34 57.179 173.662 57.8572 172.644 57.8572H146.195V77.3554C146.195 78.3727 145.516 79.0509 144.499 79.0509H137.378C136.361 79.0509 135.683 78.3727 135.683 77.3554V57.8572H109.233C108.216 57.8572 107.537 57.179 107.537 56.1617V50.8209C107.537 49.8036 108.216 49.1254 109.233 49.1254H172.644ZM119.406 41.8348C114.319 41.8348 110.928 38.4438 110.928 33.3573V8.26399C110.928 7.24669 111.607 6.5685 112.624 6.5685H119.406C120.423 6.5685 121.101 7.24669 121.101 8.26399V18.1826C129.494 16.7415 140.769 15.9785 152.298 15.9785H160.776V8.26399C160.776 7.24669 161.454 6.5685 162.471 6.5685H169.253C170.271 6.5685 170.949 7.24669 170.949 8.26399V33.3573C170.949 38.4438 167.558 41.8348 162.471 41.8348H119.406ZM121.101 31.8314C121.101 32.8487 121.78 33.5269 122.797 33.5269H159.08C160.098 33.5269 160.776 32.8487 160.776 31.8314V24.1169H152.298C140.176 24.1169 128.985 24.9646 121.101 26.5753V31.8314Z" fill="#58C185"/>
<path d="M188.869 36.9179C188.869 37.9351 189.548 38.6133 190.565 38.6133H193.193C201.247 38.6133 210.572 37.8504 220.151 36.1549C221.253 35.9853 222.101 36.494 222.186 37.4265L222.949 42.0891C223.034 43.0216 222.695 43.7846 221.762 43.9542C211.759 45.8192 201.416 46.6669 189.548 46.6669H187.004C181.918 46.6669 178.527 43.276 178.527 38.1895V15.3851C178.527 10.2986 181.918 6.9076 187.004 6.9076H214.98C215.997 6.9076 216.676 7.58579 216.676 8.60309V13.4352C216.676 14.4525 215.997 15.1307 214.98 15.1307H190.565C189.548 15.1307 188.869 15.8089 188.869 16.8262V22.4214H213.115C214.132 22.4214 214.81 23.0996 214.81 24.1169V28.8643C214.81 29.8815 214.132 30.5597 213.115 30.5597H188.869V36.9179ZM228.374 6.99237C228.374 5.97507 229.053 5.29688 230.07 5.29688H237.021C238.039 5.29688 238.717 5.97507 238.717 6.99237V22.93H246.092C247.11 22.93 247.788 23.6082 247.788 24.6255V30.3902C247.788 31.4075 247.11 32.0857 246.092 32.0857H238.717V47.3451C238.717 48.3624 238.039 49.0406 237.021 49.0406H230.07C229.053 49.0406 228.374 48.3624 228.374 47.3451V6.99237ZM230.07 79.0509C229.053 79.0509 228.374 78.3727 228.374 77.3554V62.6894C228.374 61.6721 227.696 60.9939 226.679 60.9939H183.359C182.342 60.9939 181.664 60.3157 181.664 59.2984V54.1271C181.664 53.1098 182.342 52.4316 183.359 52.4316H230.409C235.496 52.4316 238.887 55.8226 238.887 60.9091V77.3554C238.887 78.3727 238.208 79.0509 237.191 79.0509H230.07Z" fill="#58C185"/>
<path d="M340.715 76.5924C327.066 76.5924 320.03 63.6219 320.03 41.3261C320.03 19.0304 327.066 6.05985 340.715 6.05985C353.092 6.05985 360.043 16.7415 361.23 35.4767H371.488V6.99237C371.488 5.97507 372.166 5.29688 373.184 5.29688H380.305C381.322 5.29688 382 5.97507 382 6.99237V77.3554C382 78.3727 381.322 79.0509 380.305 79.0509H373.184C372.166 79.0509 371.488 78.3727 371.488 77.3554V44.2933H361.315C360.722 64.8087 353.77 76.5924 340.715 76.5924ZM340.715 67.9454C348.09 67.9454 351.312 58.3659 351.312 41.3261C351.312 24.2864 348.09 14.7069 340.715 14.7069C333.339 14.7069 330.118 24.2864 330.118 41.3261C330.118 58.3659 333.339 67.9454 340.715 67.9454Z" fill="#58C185"/>
<path d="M289.68 7.33147C289.68 6.31417 290.359 5.63597 291.376 5.63597H297.819C298.836 5.63597 299.514 6.31417 299.514 7.33147V76.5076C299.514 77.5249 298.836 78.2031 297.819 78.2031H291.376C290.359 78.2031 289.68 77.5249 289.68 76.5076V42.8521H280.016C275.777 58.0268 268.232 67.9454 260.857 74.4731C259.925 75.3208 258.907 75.0665 258.229 74.2187L254.16 68.7931C253.397 67.7759 253.821 67.0129 254.923 66.0804C261.45 60.7395 267.3 52.4316 270.776 40.987H253.99C252.973 40.987 252.295 40.3088 252.295 39.2915V33.9507C252.295 32.9334 252.973 32.2552 253.99 32.2552H272.81C273.573 27.7622 273.997 22.8452 273.997 17.5892C273.997 16.5719 273.319 15.8937 272.302 15.8937H254.923C253.906 15.8937 253.227 15.2155 253.227 14.1982V8.94219C253.227 7.92489 253.906 7.24669 254.923 7.24669H274.93C280.016 7.24669 283.407 10.6377 283.407 15.7242C283.407 22.5061 282.898 28.6099 281.881 34.2051H289.68V7.33147ZM305.872 6.99237C305.872 5.97507 306.551 5.29688 307.568 5.29688H314.18C315.198 5.29688 315.876 5.97507 315.876 6.99237V77.3554C315.876 78.3727 315.198 79.0509 314.18 79.0509H307.568C306.551 79.0509 305.872 78.3727 305.872 77.3554V6.99237Z" fill="#58C185"/>
</svg>
