<svg width="275" height="75" viewBox="0 0 275 75" fill="none" xmlns="http://www.w3.org/2000/svg">
<path d="M65.6441 44.1244C66.6614 44.1244 67.3396 44.8026 67.3396 45.8199V51.1607C67.3396 52.178 66.6614 52.8562 65.6441 52.8562H39.1944V72.3544C39.1944 73.3717 38.5162 74.0499 37.4989 74.0499H30.3778C29.3605 74.0499 28.6823 73.3717 28.6823 72.3544V52.8562H2.2326C1.21531 52.8562 0.537109 52.178 0.537109 51.1607V45.8199C0.537109 44.8026 1.21531 44.1244 2.2326 44.1244H65.6441ZM12.4056 36.8338C7.31909 36.8338 3.9281 33.4428 3.9281 28.3563V3.26302C3.9281 2.24572 4.6063 1.56752 5.62359 1.56752H12.4056C13.4229 1.56752 14.1011 2.24572 14.1011 3.26302V13.1817C22.4938 11.7405 33.7688 10.9775 45.2982 10.9775H53.7756V3.26302C53.7756 2.24572 54.4538 1.56752 55.4711 1.56752H62.2531C63.2704 1.56752 63.9486 2.24572 63.9486 3.26302V28.3563C63.9486 33.4428 60.5576 36.8338 55.4711 36.8338H12.4056ZM14.1011 26.8304C14.1011 27.8477 14.7793 28.5259 15.7966 28.5259H52.0801C53.0974 28.5259 53.7756 27.8477 53.7756 26.8304V19.1159H45.2982C33.1754 19.1159 21.9851 19.9636 14.1011 21.5744V26.8304Z" fill="#49CAA9"/>
<path d="M81.8692 31.9169C81.8692 32.9342 82.5474 33.6124 83.5647 33.6124H86.1927C94.2463 33.6124 103.571 32.8494 113.151 31.1539C114.253 30.9844 115.101 31.493 115.186 32.4255L115.949 37.0881C116.033 38.0207 115.694 38.7836 114.762 38.9532C104.758 40.8182 94.4158 41.666 82.5474 41.666H80.0041C74.9176 41.666 71.5267 38.275 71.5267 33.1885V10.3841C71.5267 5.29761 74.9176 1.90662 80.0041 1.90662H107.98C108.997 1.90662 109.675 2.58482 109.675 3.60212V8.43427C109.675 9.45157 108.997 10.1298 107.98 10.1298H83.5647C82.5474 10.1298 81.8692 10.808 81.8692 11.8253V17.4204H106.115C107.132 17.4204 107.81 18.0986 107.81 19.1159V23.8633C107.81 24.8806 107.132 25.5588 106.115 25.5588H81.8692V31.9169ZM121.374 1.9914C121.374 0.974098 122.052 0.295898 123.07 0.295898H130.021C131.039 0.295898 131.717 0.974098 131.717 1.9914V17.929H139.092C140.109 17.929 140.788 18.6072 140.788 19.6245V25.3892C140.788 26.4065 140.109 27.0847 139.092 27.0847H131.717V42.3442C131.717 43.3615 131.039 44.0397 130.021 44.0397H123.07C122.052 44.0397 121.374 43.3615 121.374 42.3442V1.9914ZM123.07 74.0499C122.052 74.0499 121.374 73.3717 121.374 72.3544V57.6884C121.374 56.6711 120.696 55.9929 119.679 55.9929H76.3588C75.3415 55.9929 74.6633 55.3147 74.6633 54.2974V49.1261C74.6633 48.1088 75.3415 47.4306 76.3588 47.4306H123.409C128.495 47.4306 131.886 50.8216 131.886 55.9081V72.3544C131.886 73.3717 131.208 74.0499 130.191 74.0499H123.07Z" fill="#49CAA9"/>
<path d="M233.715 71.5914C220.066 71.5914 213.03 58.6209 213.03 36.3252C213.03 14.0294 220.066 1.05887 233.715 1.05887C246.092 1.05887 253.043 11.7405 254.23 30.4757H264.488V1.9914C264.488 0.974098 265.166 0.295898 266.183 0.295898H273.304C274.322 0.295898 275 0.974098 275 1.9914V72.3544C275 73.3717 274.322 74.0499 273.304 74.0499H266.183C265.166 74.0499 264.488 73.3717 264.488 72.3544V39.2923H254.315C253.721 59.8078 246.77 71.5914 233.715 71.5914ZM233.715 62.9444C241.09 62.9444 244.311 53.3649 244.311 36.3252C244.311 19.2854 241.09 9.70589 233.715 9.70589C226.339 9.70589 223.118 19.2854 223.118 36.3252C223.118 53.3649 226.339 62.9444 233.715 62.9444Z" fill="#49CAA9"/>
<path d="M182.68 2.3305C182.68 1.3132 183.358 0.634998 184.376 0.634998H190.819C191.836 0.634998 192.514 1.3132 192.514 2.3305V71.5067C192.514 72.524 191.836 73.2022 190.819 73.2022H184.376C183.358 73.2022 182.68 72.524 182.68 71.5067V37.8511H173.016C168.777 53.0258 161.232 62.9444 153.857 69.4721C152.924 70.3198 151.907 70.0655 151.229 69.2178L147.16 63.7922C146.397 62.7749 146.821 62.0119 147.923 61.0794C154.45 55.7386 160.3 47.4306 163.775 35.9861H146.99C145.973 35.9861 145.295 35.3079 145.295 34.2906V28.9498C145.295 27.9325 145.973 27.2543 146.99 27.2543H165.81C166.573 22.7612 166.997 17.8443 166.997 12.5882C166.997 11.5709 166.319 10.8927 165.301 10.8927H147.923C146.905 10.8927 146.227 10.2145 146.227 9.19725V3.94122C146.227 2.92392 146.905 2.24572 147.923 2.24572H167.929C173.016 2.24572 176.407 5.63671 176.407 10.7232C176.407 17.5052 175.898 23.609 174.881 29.2041H182.68V2.3305ZM198.872 1.9914C198.872 0.974098 199.55 0.295898 200.568 0.295898H207.18C208.197 0.295898 208.876 0.974098 208.876 1.9914V72.3544C208.876 73.3717 208.197 74.0499 207.18 74.0499H200.568C199.55 74.0499 198.872 73.3717 198.872 72.3544V1.9914Z" fill="#49CAA9"/>
</svg>
