<svg width="24" height="25" viewBox="0 0 24 25" fill="none" xmlns="http://www.w3.org/2000/svg">
<g id="alarm">
<mask id="mask0_356_1997" style="mask-type:alpha" maskUnits="userSpaceOnUse" x="0" y="0" width="24" height="25">
<rect id="Bounding box" y="0.5" width="24" height="24" fill="#D9D9D9"/>
</mask>
<g mask="url(#mask0_356_1997)">
<path id="alarm_2" d="M12 21.5C10.75 21.5 9.57917 21.2625 8.4875 20.7875C7.39583 20.3125 6.44583 19.6708 5.6375 18.8625C4.82917 18.0542 4.1875 17.1042 3.7125 16.0125C3.2375 14.9208 3 13.75 3 12.5C3 11.25 3.2375 10.0792 3.7125 8.9875C4.1875 7.89583 4.82917 6.94583 5.6375 6.1375C6.44583 5.32917 7.39583 4.6875 8.4875 4.2125C9.57917 3.7375 10.75 3.5 12 3.5C13.25 3.5 14.4208 3.7375 15.5125 4.2125C16.6042 4.6875 18.3625 6.1375 18.3625 6.1375C18.3625 6.1375 19.8125 7.89583 20.2875 8.9875C20.7625 10.0792 21 11.25 21 12.5C21 13.75 20.7625 14.9208 20.2875 16.0125C19.8125 17.1042 19.1708 18.0542 18.3625 18.8625C17.5542 19.6708 16.6042 20.3125 15.5125 20.7875C14.4208 21.2625 13.25 21.5 12 21.5ZM14.8 16.7L16.2 15.3L13 12.1V7.5H11V12.9L14.8 16.7ZM12 19.5C13.95 19.5 15.6042 18.8208 16.9625 17.4625C18.3208 16.1042 19 14.45 19 12.5C19 10.55 18.3208 8.89583 16.9625 7.5375C15.6042 6.17917 13.95 5.5 12 5.5C10.05 5.5 8.39583 6.17917 7.0375 7.5375C5.67917 8.89583 5 10.55 5 12.5C5 14.45 5.67917 16.1042 7.0375 17.4625C8.39583 18.8208 10.05 19.5 12 19.5Z" fill="#858585"/>
</g>
</g>
</svg>
