<svg width="85" height="85" viewBox="0 0 85 85" fill="none" xmlns="http://www.w3.org/2000/svg">
<g id="Component 1">
<path id="Rectangle 24" d="M0 17.5862C0 7.87361 7.87361 0 17.5862 0H67.4138C77.1264 0 85 7.87361 85 17.5862V67.4138C85 77.1264 77.1264 85 67.4138 85H17.5862C7.87361 85 0 77.1264 0 67.4138V17.5862Z" fill="url(#paint0_linear_356_2390)"/>
<path id="Union" fill-rule="evenodd" clip-rule="evenodd" d="M77.3004 25.5615C77.3004 15.6965 69.3032 7.69922 59.4381 7.69922C52.4176 7.69922 46.3431 11.7494 43.4236 17.6406C40.5042 11.7494 34.4297 7.69927 27.4092 7.69927C17.5441 7.69927 9.54689 15.6965 9.54689 25.5616C9.54689 32.582 13.597 38.6565 19.4882 41.576C13.597 44.4955 9.54688 50.57 9.54688 57.5905C9.54688 67.4555 17.5441 75.4528 27.4092 75.4528C34.4297 75.4528 40.5042 71.4026 43.4237 65.5114C46.3431 71.4026 52.4176 75.4528 59.4381 75.4528C69.3032 75.4528 77.3004 67.4555 77.3004 57.5905C77.3004 50.57 73.2503 44.4955 67.359 41.576C73.2503 38.6565 77.3004 32.582 77.3004 25.5615Z" fill="white"/>
<g id="Vector">
<path d="M41.3681 31.1882C41.6495 31.1882 41.8371 31.3758 41.8371 31.6572V33.1344C41.8371 33.4158 41.6495 33.6034 41.3681 33.6034H34.0523V38.9965C34.0523 39.2778 33.8647 39.4654 33.5833 39.4654H31.6137C31.3323 39.4654 31.1447 39.2778 31.1447 38.9965V33.6034H23.8288C23.5474 33.6034 23.3599 33.4158 23.3599 33.1344V31.6572C23.3599 31.3758 23.5474 31.1882 23.8288 31.1882H41.3681ZM26.6426 29.1716C25.2357 29.1716 24.2978 28.2337 24.2978 26.8268V19.8861C24.2978 19.6047 24.4854 19.4172 24.7668 19.4172H26.6426C26.924 19.4172 27.1116 19.6047 27.1116 19.8861V22.6296C29.433 22.2309 32.5516 22.0199 35.7406 22.0199H38.0854V19.8861C38.0854 19.6047 38.273 19.4172 38.5543 19.4172H40.4302C40.7116 19.4172 40.8992 19.6047 40.8992 19.8861V26.8268C40.8992 28.2337 39.9612 29.1716 38.5543 29.1716H26.6426ZM27.1116 26.4047C27.1116 26.6861 27.2992 26.8737 27.5806 26.8737H37.6164C37.8978 26.8737 38.0854 26.6861 38.0854 26.4047V24.2709H35.7406C32.3874 24.2709 29.2923 24.5054 27.1116 24.9509V26.4047Z" fill="#49CAA9"/>
<path d="M47.0192 27.8116C47.0192 28.093 47.2068 28.2806 47.4881 28.2806H48.215C50.4426 28.2806 53.0219 28.0696 55.6716 27.6006C55.9764 27.5537 56.2109 27.6944 56.2343 27.9523L56.4454 29.242C56.4688 29.4999 56.375 29.7109 56.1171 29.7578C53.3502 30.2737 50.4895 30.5082 47.2068 30.5082H46.5033C45.0964 30.5082 44.1585 29.5703 44.1585 28.1634V21.8558C44.1585 20.4489 45.0964 19.5109 46.5033 19.5109H54.2412C54.5226 19.5109 54.7102 19.6985 54.7102 19.9799V21.3165C54.7102 21.5978 54.5226 21.7854 54.2412 21.7854H47.4881C47.2068 21.7854 47.0192 21.973 47.0192 22.2544V23.802H53.7254C54.0068 23.802 54.1943 23.9896 54.1943 24.2709V25.5841C54.1943 25.8654 54.0068 26.053 53.7254 26.053H47.0192V27.8116ZM57.9461 19.5344C57.9461 19.253 58.1337 19.0654 58.415 19.0654H60.3378C60.6192 19.0654 60.8068 19.253 60.8068 19.5344V23.9427H62.8468C63.1281 23.9427 63.3157 24.1303 63.3157 24.4116V26.0061C63.3157 26.2875 63.1281 26.4751 62.8468 26.4751H60.8068V30.6958C60.8068 30.9772 60.6192 31.1647 60.3378 31.1647H58.415C58.1337 31.1647 57.9461 30.9772 57.9461 30.6958V19.5344ZM58.415 39.4654C58.1337 39.4654 57.9461 39.2778 57.9461 38.9965V34.9399C57.9461 34.6585 57.7585 34.4709 57.4771 34.4709H45.495C45.2137 34.4709 45.0261 34.2834 45.0261 34.002V32.5716C45.0261 32.2903 45.2137 32.1027 45.495 32.1027H58.5088C59.9157 32.1027 60.8537 33.0406 60.8537 34.4475V38.9965C60.8537 39.2778 60.6661 39.4654 60.3847 39.4654H58.415Z" fill="#49CAA9"/>
<path d="M34.0288 44.542C34.0288 44.2606 34.2164 44.073 34.4978 44.073H36.2799C36.5612 44.073 36.7488 44.2606 36.7488 44.542V63.6758C36.7488 63.9572 36.5612 64.1447 36.2799 64.1447H34.4978C34.2164 64.1447 34.0288 63.9572 34.0288 63.6758V54.3668H31.3557C30.1833 58.5641 28.0964 61.3075 26.0564 63.113C25.7985 63.3475 25.5171 63.2772 25.3295 63.0427L24.204 61.542C23.993 61.2606 24.1102 61.0496 24.415 60.7916C26.2206 59.3144 27.8385 57.0165 28.7999 53.8509H24.1571C23.8757 53.8509 23.6881 53.6634 23.6881 53.382V51.9047C23.6881 51.6234 23.8757 51.4358 24.1571 51.4358H29.3626C29.5737 50.193 29.6909 48.833 29.6909 47.3792C29.6909 47.0978 29.5033 46.9103 29.2219 46.9103H24.415C24.1337 46.9103 23.9461 46.7227 23.9461 46.4413V44.9875C23.9461 44.7061 24.1337 44.5185 24.415 44.5185H29.9488C31.3557 44.5185 32.2937 45.4565 32.2937 46.8634C32.2937 48.7392 32.153 50.4275 31.8716 51.9751H34.0288V44.542ZM38.5075 44.4482C38.5075 44.1668 38.695 43.9792 38.9764 43.9792H40.8054C41.0868 43.9792 41.2743 44.1668 41.2743 44.4482V63.9103C41.2743 64.1916 41.0868 64.3792 40.8054 64.3792H38.9764C38.695 64.3792 38.5075 64.1916 38.5075 63.9103V44.4482Z" fill="#49CAA9"/>
<path d="M49.9033 63.6992C46.1281 63.6992 44.1819 60.1116 44.1819 53.9447C44.1819 47.7778 46.1281 44.1903 49.9033 44.1903C53.3268 44.1903 55.2495 47.1447 55.5778 52.3268H58.415V44.4482C58.415 44.1668 58.6026 43.9792 58.884 43.9792H60.8537C61.135 43.9792 61.3226 44.1668 61.3226 44.4482V63.9103C61.3226 64.1916 61.135 64.3792 60.8537 64.3792H58.884C58.6026 64.3792 58.415 64.1916 58.415 63.9103V54.7654H55.6012C55.4371 60.4399 53.5143 63.6992 49.9033 63.6992ZM49.9033 61.3075C51.9433 61.3075 52.8343 58.6578 52.8343 53.9447C52.8343 49.2316 51.9433 46.582 49.9033 46.582C47.8633 46.582 46.9723 49.2316 46.9723 53.9447C46.9723 58.6578 47.8633 61.3075 49.9033 61.3075Z" fill="#49CAA9"/>
</g>
</g>
<defs>
<linearGradient id="paint0_linear_356_2390" x1="5.08153" y1="-69.4475" x2="39.5743" y2="67.5996" gradientUnits="userSpaceOnUse">
<stop stop-color="#BDF4DB"/>
<stop offset="1" stop-color="#49CAA9"/>
</linearGradient>
</defs>
</svg>
