<svg width="127" height="30" viewBox="0 0 127 30" fill="none" xmlns="http://www.w3.org/2000/svg">
<path fill-rule="evenodd" clip-rule="evenodd" d="M7.80193 0C3.49304 0 0 3.49304 0 7.80193C0 10.8683 1.76897 13.5215 4.34206 14.7967C1.76897 16.0719 0 18.7251 0 21.7914C0 26.1003 3.49304 29.5933 7.80193 29.5933C10.8684 29.5933 13.5217 27.8242 14.7968 25.251C16.072 27.8242 18.7252 29.5933 21.7917 29.5933C26.1006 29.5933 29.5936 26.1003 29.5936 21.7914C29.5936 18.7251 27.8247 16.0719 25.2516 14.7967C27.8247 13.5215 29.5936 10.8683 29.5936 7.80193C29.5936 3.49304 26.1006 0 21.7917 0C18.7252 0 16.072 1.76911 14.7968 4.34237C13.5217 1.76911 10.8684 0 7.80193 0Z" fill="#58C185"/>
<path d="M57.3973 16.333C57.7355 16.333 57.9609 16.5585 57.9609 16.8967V18.6723C57.9609 19.0105 57.7355 19.236 57.3973 19.236H48.6038V25.7184C48.6038 26.0566 48.3783 26.2821 48.0401 26.2821H45.6726C45.3344 26.2821 45.1089 26.0566 45.1089 25.7184V19.236H36.3154C35.9772 19.236 35.7517 19.0105 35.7517 18.6723V16.8967C35.7517 16.5585 35.9772 16.333 36.3154 16.333H57.3973ZM39.6975 13.9092C38.0065 13.9092 36.8791 12.7818 36.8791 11.0907V2.74817C36.8791 2.40996 37.1046 2.18448 37.4428 2.18448H39.6975C40.0357 2.18448 40.2612 2.40996 40.2612 2.74817V6.04573C43.0514 5.5666 46.8 5.31294 50.633 5.31294H53.4515V2.74817C53.4515 2.40996 53.6769 2.18448 54.0151 2.18448H56.2699C56.6081 2.18448 56.8336 2.40996 56.8336 2.74817V11.0907C56.8336 12.7818 55.7062 13.9092 54.0151 13.9092H39.6975ZM40.2612 10.5834C40.2612 10.9216 40.4867 11.1471 40.8249 11.1471H52.8878C53.226 11.1471 53.4515 10.9216 53.4515 10.5834V8.01864H50.633C46.6027 8.01864 42.8823 8.30048 40.2612 8.83598V10.5834Z" fill="#58C185"/>
<path d="M62.7915 12.2745C62.7915 12.6127 63.0169 12.8382 63.3552 12.8382H64.2289C66.9064 12.8382 70.0066 12.5845 73.1915 12.0208C73.5579 11.9644 73.8397 12.1335 73.8679 12.4436L74.1216 13.9937C74.1497 14.3037 74.037 14.5574 73.727 14.6138C70.4012 15.2338 66.9627 15.5157 63.0169 15.5157H62.1714C60.4804 15.5157 59.353 14.3883 59.353 12.6972V5.11565C59.353 3.42459 60.4804 2.29722 62.1714 2.29722H71.4722C71.8104 2.29722 72.0359 2.5227 72.0359 2.86091V4.46741C72.0359 4.80562 71.8104 5.0311 71.4722 5.0311H63.3552C63.0169 5.0311 62.7915 5.25657 62.7915 5.59478V7.45495H70.8522C71.1904 7.45495 71.4159 7.68042 71.4159 8.01864V9.59696C71.4159 9.93517 71.1904 10.1606 70.8522 10.1606H62.7915V12.2745ZM75.9254 2.32541C75.9254 1.98719 76.1508 1.76172 76.489 1.76172H78.8001C79.1384 1.76172 79.3638 1.98719 79.3638 2.32541V7.62405H81.8159C82.1541 7.62405 82.3796 7.84953 82.3796 8.18774V10.1043C82.3796 10.4425 82.1541 10.668 81.8159 10.668H79.3638V15.7411C79.3638 16.0793 79.1384 16.3048 78.8001 16.3048H76.489C76.1508 16.3048 75.9254 16.0793 75.9254 15.7411V2.32541ZM76.489 26.2821C76.1508 26.2821 75.9254 26.0566 75.9254 25.7184V20.8425C75.9254 20.5043 75.6999 20.2788 75.3617 20.2788H60.9595C60.6213 20.2788 60.3958 20.0533 60.3958 19.7151V17.9959C60.3958 17.6577 60.6213 17.4322 60.9595 17.4322H76.6018C78.2928 17.4322 79.4202 18.5596 79.4202 20.2506V25.7184C79.4202 26.0566 79.1947 26.2821 78.8565 26.2821H76.489Z" fill="#58C185"/>
<path d="M113.274 25.4647C108.736 25.4647 106.397 21.1525 106.397 13.74C106.397 6.32758 108.736 2.01538 113.274 2.01538C117.389 2.01538 119.7 5.5666 120.095 11.7953H123.505V2.32541C123.505 1.98719 123.731 1.76172 124.069 1.76172H126.436C126.774 1.76172 127 1.98719 127 2.32541V25.7184C127 26.0566 126.774 26.2821 126.436 26.2821H124.069C123.731 26.2821 123.505 26.0566 123.505 25.7184V14.7265H120.123C119.926 21.5471 117.615 25.4647 113.274 25.4647ZM113.274 22.5899C115.726 22.5899 116.797 19.4051 116.797 13.74C116.797 8.075 115.726 4.89018 113.274 4.89018C110.822 4.89018 109.751 8.075 109.751 13.74C109.751 19.4051 110.822 22.5899 113.274 22.5899Z" fill="#58C185"/>
<path d="M96.3072 2.43814C96.3072 2.09993 96.5327 1.87446 96.8709 1.87446H99.0129C99.3511 1.87446 99.5766 2.09993 99.5766 2.43814V25.4365C99.5766 25.7747 99.3511 26.0002 99.0129 26.0002H96.8709C96.5327 26.0002 96.3072 25.7747 96.3072 25.4365V14.2474H93.0942C91.685 19.2924 89.1766 22.5899 86.7246 24.7601C86.4145 25.042 86.0763 24.9574 85.8508 24.6756L84.498 22.8718C84.2443 22.5336 84.3853 22.2799 84.7517 21.9699C86.9219 20.1943 88.8666 17.4322 90.0221 13.6273H84.4416C84.1034 13.6273 83.8779 13.4018 83.8779 13.0636V11.288C83.8779 10.9498 84.1034 10.7243 84.4416 10.7243H90.6985C90.9522 9.23056 91.0931 7.59587 91.0931 5.84844C91.0931 5.51023 90.8677 5.28476 90.5294 5.28476H84.7517C84.4134 5.28476 84.188 5.05928 84.188 4.72107V2.97364C84.188 2.63543 84.4134 2.40996 84.7517 2.40996H91.4032C93.0942 2.40996 94.2216 3.53733 94.2216 5.22839C94.2216 7.48313 94.0525 9.5124 93.7143 11.3726H96.3072V2.43814ZM101.69 2.32541C101.69 1.98719 101.916 1.76172 102.254 1.76172H104.452C104.791 1.76172 105.016 1.98719 105.016 2.32541V25.7184C105.016 26.0566 104.791 26.2821 104.452 26.2821H102.254C101.916 26.2821 101.69 26.0566 101.69 25.7184V2.32541Z" fill="#58C185"/>
</svg>
