<svg width="90" height="90" viewBox="0 0 90 90" fill="none" xmlns="http://www.w3.org/2000/svg">
<path id="Union" fill-rule="evenodd" clip-rule="evenodd" d="M89.0142 23.4672C89.0142 10.5066 78.5076 0 65.5471 0C56.3233 0 48.3425 5.32144 44.5071 13.0617C40.6717 5.32147 32.6909 5.2272e-05 23.4672 5.2272e-05C10.5066 5.2272e-05 0 10.5067 0 23.4672C0 32.6908 5.32123 40.6715 13.0612 44.507C5.32123 48.3424 0 56.3231 0 65.5467C0 78.5072 10.5066 89.0139 23.4672 89.0139C32.6909 89.0139 40.6718 83.6924 44.5071 75.9522C48.3425 83.6924 56.3233 89.0139 65.5471 89.0139C78.5076 89.0139 89.0142 78.5072 89.0142 65.5467C89.0142 56.3231 83.693 48.3424 75.9529 44.5069C83.693 40.6715 89.0142 32.6908 89.0142 23.4672Z" fill="#49CAA9"/>
</svg>
