<svg width="127" height="30" viewBox="0 0 127 30" fill="none" xmlns="http://www.w3.org/2000/svg">
<g id="Group 4">
<path id="Union" fill-rule="evenodd" clip-rule="evenodd" d="M7.80193 0C3.49304 0 0 3.49304 0 7.80193C0 10.8683 1.76897 13.5215 4.34206 14.7967C1.76897 16.0719 0 18.7251 0 21.7914C0 26.1003 3.49304 29.5933 7.80193 29.5933C10.8684 29.5933 13.5217 27.8242 14.7968 25.251C16.072 27.8242 18.7252 29.5933 21.7917 29.5933C26.1006 29.5933 29.5936 26.1003 29.5936 21.7914C29.5936 18.7251 27.8247 16.0719 25.2516 14.7967C27.8247 13.5215 29.5936 10.8683 29.5936 7.80193C29.5936 3.49304 26.1006 0 21.7917 0C18.7252 0 16.072 1.76911 14.7968 4.34237C13.5217 1.76911 10.8684 0 7.80193 0Z" fill="#49CAA9"/>
<g id="Vector">
<path d="M57.3975 16.332C57.7357 16.332 57.9612 16.5575 57.9612 16.8957V18.6713C57.9612 19.0095 57.7357 19.235 57.3975 19.235H48.604V25.7174C48.604 26.0556 48.3785 26.2811 48.0403 26.2811H45.6728C45.3346 26.2811 45.1091 26.0556 45.1091 25.7174V19.235H36.3156C35.9774 19.235 35.752 19.0095 35.752 18.6713V16.8957C35.752 16.5575 35.9774 16.332 36.3156 16.332H57.3975ZM39.6978 13.9082C38.0067 13.9082 36.8793 12.7808 36.8793 11.0897V2.74719C36.8793 2.40898 37.1048 2.18351 37.443 2.18351H39.6978C40.036 2.18351 40.2614 2.40898 40.2614 2.74719V6.04476C43.0517 5.56562 46.8002 5.31197 50.6333 5.31197H53.4517V2.74719C53.4517 2.40898 53.6772 2.18351 54.0154 2.18351H56.2701C56.6083 2.18351 56.8338 2.40898 56.8338 2.74719V11.0897C56.8338 12.7808 55.7064 13.9082 54.0154 13.9082H39.6978ZM40.2614 10.5824C40.2614 10.9206 40.4869 11.1461 40.8251 11.1461H52.888C53.2262 11.1461 53.4517 10.9206 53.4517 10.5824V8.01766H50.6333C46.6029 8.01766 42.8826 8.2995 40.2614 8.835V10.5824Z" fill="#49CAA9"/>
<path d="M62.7917 12.2735C62.7917 12.6117 63.0172 12.8372 63.3554 12.8372H64.2291C66.9066 12.8372 70.0069 12.5835 73.1917 12.0198C73.5581 11.9635 73.84 12.1326 73.8681 12.4426L74.1218 13.9927C74.15 14.3028 74.0372 14.5564 73.7272 14.6128C70.4015 15.2328 66.963 15.5147 63.0172 15.5147H62.1717C60.4806 15.5147 59.3532 14.3873 59.3532 12.6963V5.11467C59.3532 3.42362 60.4806 2.29625 62.1717 2.29625H71.4725C71.8107 2.29625 72.0362 2.52172 72.0362 2.85993V4.46644C72.0362 4.80465 71.8107 5.03012 71.4725 5.03012H63.3554C63.0172 5.03012 62.7917 5.2556 62.7917 5.59381V7.45397H70.8524C71.1906 7.45397 71.4161 7.67945 71.4161 8.01766V9.59598C71.4161 9.93419 71.1906 10.1597 70.8524 10.1597H62.7917V12.2735ZM75.9256 2.32443C75.9256 1.98622 76.1511 1.76074 76.4893 1.76074H78.8004C79.1386 1.76074 79.3641 1.98622 79.3641 2.32443V7.62308H81.8161C82.1543 7.62308 82.3798 7.84855 82.3798 8.18676V10.1033C82.3798 10.4415 82.1543 10.667 81.8161 10.667H79.3641V15.7402C79.3641 16.0784 79.1386 16.3038 78.8004 16.3038H76.4893C76.1511 16.3038 75.9256 16.0784 75.9256 15.7402V2.32443ZM76.4893 26.2811C76.1511 26.2811 75.9256 26.0556 75.9256 25.7174V20.8415C75.9256 20.5033 75.7001 20.2778 75.3619 20.2778H60.9597C60.6215 20.2778 60.396 20.0524 60.396 19.7141V17.9949C60.396 17.6567 60.6215 17.4312 60.9597 17.4312H76.602C78.2931 17.4312 79.4204 18.5586 79.4204 20.2496V25.7174C79.4204 26.0556 79.195 26.2811 78.8568 26.2811H76.4893Z" fill="#49CAA9"/>
<path d="M113.274 25.4637C108.737 25.4637 106.397 21.1515 106.397 13.7391C106.397 6.3266 108.737 2.0144 113.274 2.0144C117.389 2.0144 119.7 5.56562 120.095 11.7944H123.505V2.32443C123.505 1.98622 123.731 1.76074 124.069 1.76074H126.436C126.775 1.76074 127 1.98622 127 2.32443V25.7174C127 26.0556 126.775 26.2811 126.436 26.2811H124.069C123.731 26.2811 123.505 26.0556 123.505 25.7174V14.7255H120.123C119.926 21.5461 117.615 25.4637 113.274 25.4637ZM113.274 22.5889C115.726 22.5889 116.797 19.4041 116.797 13.7391C116.797 8.07403 115.726 4.8892 113.274 4.8892C110.822 4.8892 109.751 8.07403 109.751 13.7391C109.751 19.4041 110.822 22.5889 113.274 22.5889Z" fill="#49CAA9"/>
<path d="M96.3075 2.43717C96.3075 2.09895 96.5329 1.87348 96.8712 1.87348H99.0132C99.3514 1.87348 99.5768 2.09895 99.5768 2.43717V25.4356C99.5768 25.7738 99.3514 25.9992 99.0132 25.9992H96.8712C96.5329 25.9992 96.3075 25.7738 96.3075 25.4356V14.2464H93.0945C91.6852 19.2914 89.1768 22.5889 86.7248 24.7591C86.4148 25.041 86.0766 24.9564 85.8511 24.6746L84.4982 22.8708C84.2446 22.5326 84.3855 22.2789 84.7519 21.9689C86.9221 20.1933 88.8668 17.4312 90.0224 13.6263H84.4419C84.1037 13.6263 83.8782 13.4009 83.8782 13.0626V11.287C83.8782 10.9488 84.1037 10.7234 84.4419 10.7234H90.6988C90.9524 9.22958 91.0934 7.59489 91.0934 5.84747C91.0934 5.50925 90.8679 5.28378 90.5297 5.28378H84.7519C84.4137 5.28378 84.1882 5.05831 84.1882 4.72009V2.97267C84.1882 2.63446 84.4137 2.40898 84.7519 2.40898H91.4034C93.0945 2.40898 94.2218 3.53635 94.2218 5.22741C94.2218 7.48216 94.0527 9.51143 93.7145 11.3716H96.3075V2.43717ZM101.691 2.32443C101.691 1.98622 101.916 1.76074 102.254 1.76074H104.453C104.791 1.76074 105.016 1.98622 105.016 2.32443V25.7174C105.016 26.0556 104.791 26.2811 104.453 26.2811H102.254C101.916 26.2811 101.691 26.0556 101.691 25.7174V2.32443Z" fill="#49CAA9"/>
</g>
</g>
</svg>
