<svg width="40" height="40" viewBox="0 0 40 40" fill="none" xmlns="http://www.w3.org/2000/svg">
<g id="filter_alt">
<mask id="mask0_356_1533" style="mask-type:alpha" maskUnits="userSpaceOnUse" x="0" y="0" width="40" height="40">
<rect id="Bounding box" width="40" height="40" fill="#D9D9D9"/>
</mask>
<g mask="url(#mask0_356_1533)">
<path id="filter_alt_2" d="M18.3332 33.3337C17.861 33.3337 17.4651 33.1739 17.1457 32.8545C16.8263 32.535 16.6665 32.1392 16.6665 31.667V21.667L6.80529 9.08366C6.40723 8.58366 6.34945 8.05588 6.63195 7.50033C6.91418 6.94477 7.37015 6.66699 7.99987 6.66699H31.9999C32.6296 6.66699 33.0856 6.94477 33.3678 7.50033C33.6503 8.05588 33.5925 8.58366 33.1945 9.08366L23.3332 21.667V31.667C23.3332 32.1392 23.1735 32.535 22.854 32.8545C22.5346 33.1739 22.1388 33.3337 21.6665 33.3337H18.3332ZM19.9999 21.3891L29.4165 9.44491H10.5832L19.9999 21.3891Z" fill="#B2B2B2"/>
</g>
</g>
</svg>
