<svg width="125" height="125" viewBox="0 0 125 125" fill="none" xmlns="http://www.w3.org/2000/svg">
<circle cx="62.5" cy="62.5" r="59.5294" fill="white" stroke="#DFE3E2" stroke-width="4.05882"/>
<mask id="mask0_803_7305" style="mask-type:alpha" maskUnits="userSpaceOnUse" x="5" y="5" width="115" height="115">
<circle cx="62.5" cy="62.5" r="57.5" fill="#DFDDDB"/>
</mask>
<g mask="url(#mask0_803_7305)">
<path d="M40.7951 48.293C27.0057 48.293 15.8271 59.4715 15.8271 73.2609C15.8271 83.0741 21.4885 91.5651 29.7233 95.6459C21.4885 99.7267 15.8271 108.218 15.8271 118.031C15.8271 131.82 27.0057 142.999 40.7951 142.999C50.6083 142.999 59.0993 137.337 63.1801 129.103C67.2609 137.337 75.7518 142.999 85.5651 142.999C99.3545 142.999 110.533 131.82 110.533 118.031C110.533 108.218 104.872 99.7267 96.6369 95.6459C104.872 91.5651 110.533 83.0741 110.533 73.2609C110.533 59.4715 99.3545 48.293 85.5651 48.293C75.7518 48.293 67.2609 53.9543 63.1801 62.1891C59.0993 53.9543 50.6083 48.293 40.7951 48.293Z" fill="#191A1C"/>
<path d="M48.2968 65.204C48.2968 67.8193 46.1767 69.9393 43.5615 69.9393C40.9462 69.9393 38.8262 67.8193 38.8262 65.204C38.8262 62.5888 40.9462 60.4688 43.5615 60.4688C46.1767 60.4688 48.2968 62.5888 48.2968 65.204Z" fill="white"/>
<path d="M87.5341 65.204C87.5341 67.8193 85.414 69.9393 82.7988 69.9393C80.1835 69.9393 78.0635 67.8193 78.0635 65.204C78.0635 62.5888 80.1835 60.4688 82.7988 60.4688C85.414 60.4688 87.5341 62.5888 87.5341 65.204Z" fill="white"/>
<path fill-rule="evenodd" clip-rule="evenodd" d="M59.1263 69.8926C57.7729 69.3512 56.418 68.3356 56.418 66.5586H57.7709C57.7709 67.4875 58.4453 68.163 59.6288 68.6364C60.7916 69.1015 62.2213 69.2645 63.1827 69.2645C64.144 69.2645 65.5737 69.1015 66.7366 68.6364C67.92 68.163 68.5944 67.4875 68.5944 66.5586H69.9474C69.9474 68.3356 68.5924 69.3512 67.2391 69.8926C65.8652 70.4421 64.2507 70.6174 63.1827 70.6174C62.1146 70.6174 60.5002 70.4421 59.1263 69.8926Z" fill="white"/>
</g>
</svg>
