<svg width="24" height="24" viewBox="0 0 24 24" fill="none" xmlns="http://www.w3.org/2000/svg">
<rect width="24" height="24" fill="#F5F5F5"/>
<g id="Section 1">
<path d="M-322 -8324C-322 -8325.1 -321.105 -8326 -320 -8326H11166C11167.1 -8326 11168 -8325.1 11168 -8324V10232C11168 10233.1 11167.1 10234 11166 10234H-320C-321.105 10234 -322 10233.1 -322 10232V-8324Z" fill="#CBCACA"/>
<path d="M-320 -8325H11166V-8327H-320V-8325ZM11167 -8324V10232H11169V-8324H11167ZM11166 10233H-320V10235H11166V10233ZM-321 10232V-8324H-323V10232H-321ZM-320 10233C-320.552 10233 -321 10232.6 -321 10232H-323C-323 10233.7 -321.657 10235 -320 10235V10233ZM11167 10232C11167 10232.6 11166.6 10233 11166 10233V10235C11167.7 10235 11169 10233.7 11169 10232H11167ZM11166 -8325C11166.6 -8325 11167 -8324.55 11167 -8324H11169C11169 -8325.66 11167.7 -8327 11166 -8327V-8325ZM-320 -8327C-321.657 -8327 -323 -8325.66 -323 -8324H-321C-321 -8324.55 -320.552 -8325 -320 -8325V-8327Z" fill="black" fill-opacity="0.1"/>
<g id="&#236;&#154;&#148;&#236;&#150;&#145;&#235;&#179;&#180;&#237;&#152;&#184;&#236;&#130;&#172;_&#235;&#167;&#164;&#236;&#185;&#173;&#234;&#180;&#128;&#235;&#166;&#172;" clip-path="url(#clip0_7_261)">
<rect width="402" height="1407" transform="translate(-133 -166)" fill="#FCFCFB"/>
<path id="Rectangle 27" d="M-133 -166H269V35C269 42.732 262.732 49 255 49H-119C-126.732 49 -133 42.732 -133 35V-166Z" fill="#EDEDED"/>
<g id="location_on">
<mask id="mask0_7_261" style="mask-type:alpha" maskUnits="userSpaceOnUse" x="0" y="0" width="24" height="24">
<rect id="Bounding box" width="24" height="24" fill="#D9D9D9"/>
</mask>
<g mask="url(#mask0_7_261)">
<path id="location_on_2" d="M12 11.6568C12.5311 11.6568 12.9858 11.4677 13.364 11.0895C13.7423 10.7113 13.9314 10.2566 13.9314 9.72546C13.9314 9.19434 13.7423 8.73966 13.364 8.36144C12.9858 7.98321 12.5311 7.7941 12 7.7941C11.4689 7.7941 11.0142 7.98321 10.636 8.36144C10.2577 8.73966 10.0686 9.19434 10.0686 9.72546C10.0686 10.2566 10.2577 10.7113 10.636 11.0895C11.0142 11.4677 11.4689 11.6568 12 11.6568ZM12 18.7546C13.9636 16.952 15.4201 15.3144 16.3697 13.8417C17.3193 12.369 17.7941 11.0613 17.7941 9.9186C17.7941 8.16428 17.2348 6.72782 16.1162 5.60924C14.9976 4.49066 13.6256 3.93137 12 3.93137C10.3744 3.93137 9.00236 4.49066 7.88378 5.60924C6.76519 6.72782 6.2059 8.16428 6.2059 9.9186C6.2059 11.0613 6.6807 12.369 7.63028 13.8417C8.57987 15.3144 10.0364 16.952 12 18.7546ZM12 21.3137C9.40875 19.1087 7.47336 17.0606 6.19383 15.1695C4.9143 13.2784 4.27454 11.5281 4.27454 9.9186C4.27454 7.50439 5.05111 5.58107 6.60425 4.14864C8.15739 2.71621 9.95597 2 12 2C14.044 2 15.8426 2.71621 17.3958 4.14864C18.9489 5.58107 19.7255 7.50439 19.7255 9.9186C19.7255 11.5281 19.0857 13.2784 17.8062 15.1695C16.5266 17.0606 14.5912 19.1087 12 21.3137Z" fill="#858585"/>
</g>
</g>
</g>
</g>
<defs>
<clipPath id="clip0_7_261">
<rect width="402" height="1407" fill="white" transform="translate(-133 -166)"/>
</clipPath>
</defs>
</svg>
