<svg width="120" height="120" viewBox="0 0 120 120" fill="none" xmlns="http://www.w3.org/2000/svg">
<path d="M108.75 105H97.5V15H101.25C102.245 15 103.198 14.6049 103.902 13.9017C104.605 13.1984 105 12.2446 105 11.25C105 10.2554 104.605 9.30161 103.902 8.59835C103.198 7.89509 102.245 7.5 101.25 7.5H18.75C17.7554 7.5 16.8016 7.89509 16.0984 8.59835C15.3951 9.30161 15 10.2554 15 11.25C15 12.2446 15.3951 13.1984 16.0984 13.9017C16.8016 14.6049 17.7554 15 18.75 15H22.5V105H11.25C10.2554 105 9.30161 105.395 8.59835 106.098C7.89509 106.802 7.5 107.755 7.5 108.75C7.5 109.745 7.89509 110.698 8.59835 111.402C9.30161 112.105 10.2554 112.5 11.25 112.5H108.75C109.745 112.5 110.698 112.105 111.402 111.402C112.105 110.698 112.5 109.745 112.5 108.75C112.5 107.755 112.105 106.802 111.402 106.098C110.698 105.395 109.745 105 108.75 105ZM30 15H90V105H75V86.25C75 85.2554 74.6049 84.3016 73.9017 83.5983C73.1984 82.8951 72.2446 82.5 71.25 82.5H48.75C47.7554 82.5 46.8016 82.8951 46.0984 83.5983C45.3951 84.3016 45 85.2554 45 86.25V105H30V15ZM67.5 105H52.5V90H67.5V105ZM41.25 30C41.25 29.0054 41.6451 28.0516 42.3484 27.3484C43.0516 26.6451 44.0054 26.25 45 26.25H52.5C53.4946 26.25 54.4484 26.6451 55.1516 27.3484C55.8549 28.0516 56.25 29.0054 56.25 30C56.25 30.9946 55.8549 31.9484 55.1516 32.6516C54.4484 33.3549 53.4946 33.75 52.5 33.75H45C44.0054 33.75 43.0516 33.3549 42.3484 32.6516C41.6451 31.9484 41.25 30.9946 41.25 30ZM63.75 30C63.75 29.0054 64.1451 28.0516 64.8483 27.3484C65.5516 26.6451 66.5054 26.25 67.5 26.25H75C75.9946 26.25 76.9484 26.6451 77.6517 27.3484C78.3549 28.0516 78.75 29.0054 78.75 30C78.75 30.9946 78.3549 31.9484 77.6517 32.6516C76.9484 33.3549 75.9946 33.75 75 33.75H67.5C66.5054 33.75 65.5516 33.3549 64.8483 32.6516C64.1451 31.9484 63.75 30.9946 63.75 30ZM41.25 48.75C41.25 47.7554 41.6451 46.8016 42.3484 46.0984C43.0516 45.3951 44.0054 45 45 45H52.5C53.4946 45 54.4484 45.3951 55.1516 46.0984C55.8549 46.8016 56.25 47.7554 56.25 48.75C56.25 49.7446 55.8549 50.6984 55.1516 51.4016C54.4484 52.1049 53.4946 52.5 52.5 52.5H45C44.0054 52.5 43.0516 52.1049 42.3484 51.4016C41.6451 50.6984 41.25 49.7446 41.25 48.75ZM63.75 48.75C63.75 47.7554 64.1451 46.8016 64.8483 46.0984C65.5516 45.3951 66.5054 45 67.5 45H75C75.9946 45 76.9484 45.3951 77.6517 46.0984C78.3549 46.8016 78.75 47.7554 78.75 48.75C78.75 49.7446 78.3549 50.6984 77.6517 51.4016C76.9484 52.1049 75.9946 52.5 75 52.5H67.5C66.5054 52.5 65.5516 52.1049 64.8483 51.4016C64.1451 50.6984 63.75 49.7446 63.75 48.75ZM41.25 67.5C41.25 66.5054 41.6451 65.5516 42.3484 64.8483C43.0516 64.1451 44.0054 63.75 45 63.75H52.5C53.4946 63.75 54.4484 64.1451 55.1516 64.8483C55.8549 65.5516 56.25 66.5054 56.25 67.5C56.25 68.4946 55.8549 69.4484 55.1516 70.1517C54.4484 70.8549 53.4946 71.25 52.5 71.25H45C44.0054 71.25 43.0516 70.8549 42.3484 70.1517C41.6451 69.4484 41.25 68.4946 41.25 67.5ZM63.75 67.5C63.75 66.5054 64.1451 65.5516 64.8483 64.8483C65.5516 64.1451 66.5054 63.75 67.5 63.75H75C75.9946 63.75 76.9484 64.1451 77.6517 64.8483C78.3549 65.5516 78.75 66.5054 78.75 67.5C78.75 68.4946 78.3549 69.4484 77.6517 70.1517C76.9484 70.8549 75.9946 71.25 75 71.25H67.5C66.5054 71.25 65.5516 70.8549 64.8483 70.1517C64.1451 69.4484 63.75 68.4946 63.75 67.5Z" fill="black"/>
</svg>
