<svg width="120" height="120" viewBox="0 0 120 120" fill="none" xmlns="http://www.w3.org/2000/svg">
<mask id="mask0_902_7511" style="mask-type:alpha" maskUnits="userSpaceOnUse" x="0" y="0" width="120" height="120">
<rect width="120" height="120" fill="#D9D9D9"/>
</mask>
<g mask="url(#mask0_902_7511)">
<path d="M110.25 1.87109H32.374C29.7507 1.87109 27.624 3.99774 27.624 6.6211V98.589C27.624 101.212 29.7507 103.339 32.374 103.339H110.25C112.873 103.339 115 101.212 115 98.589V6.6211C115 3.99774 112.873 1.87109 110.25 1.87109Z" fill="url(#paint0_radial_902_7511)"/>
<path d="M74.3379 5.48828C73.036 5.48828 71.9046 6.20785 71.314 7.27265C70.7234 6.20785 69.592 5.48828 68.2902 5.48828C66.381 5.48828 64.8337 7.03557 64.8337 8.94472C64.8337 13.0667 70.9813 15.4583 71.314 15.4583C71.6468 15.4583 77.7943 13.0667 77.7943 8.94472C77.7943 7.03557 76.247 5.48828 74.3379 5.48828Z" fill="white"/>
<path d="M41.1877 19.4492H32.3782V25.8713H41.1877V19.4492Z" fill="white"/>
<path d="M52.9296 19.4492H44.1201V25.8713H52.9296V19.4492Z" fill="white"/>
<path d="M69.2927 19.4492H60.4832V25.8713H69.2927V19.4492Z" fill="white"/>
<path d="M81.0385 19.4492H72.229V25.8713H81.0385V19.4492Z" fill="white"/>
<path d="M98.1833 19.4492H89.3738V25.8713H98.1833V19.4492Z" fill="white"/>
<path d="M109.929 19.4492H101.12V25.8713H109.929V19.4492Z" fill="white"/>
<path d="M41.1877 30.7188H32.3782V37.1408H41.1877V30.7188Z" fill="white"/>
<path d="M52.9296 30.7188H44.1201V37.1408H52.9296V30.7188Z" fill="white"/>
<path d="M69.2927 30.7188H60.4832V37.1408H69.2927V30.7188Z" fill="white"/>
<path d="M81.0385 30.7188H72.229V37.1408H81.0385V30.7188Z" fill="white"/>
<path d="M98.1833 30.7188H89.3738V37.1408H98.1833V30.7188Z" fill="white"/>
<path d="M109.929 30.7188H101.12V37.1408H109.929V30.7188Z" fill="white"/>
<path d="M41.1877 50.0586H32.3782V56.4807H41.1877V50.0586Z" fill="white"/>
<path d="M52.9296 50.0586H44.1201V56.4807H52.9296V50.0586Z" fill="white"/>
<path d="M69.2927 50.0586H60.4832V56.4807H69.2927V50.0586Z" fill="white"/>
<path d="M81.0385 50.0586H72.229V56.4807H81.0385V50.0586Z" fill="white"/>
<path d="M98.1833 50.0586H89.3738V56.4807H98.1833V50.0586Z" fill="white"/>
<path d="M109.929 50.0586H101.12V56.4807H109.929V50.0586Z" fill="white"/>
<path d="M41.1877 61.332H32.3782V67.7541H41.1877V61.332Z" fill="white"/>
<path d="M52.9296 61.332H44.1201V67.7541H52.9296V61.332Z" fill="white"/>
<path d="M69.2927 61.332H60.4832V67.7541H69.2927V61.332Z" fill="white"/>
<path d="M81.0385 61.332H72.229V67.7541H81.0385V61.332Z" fill="white"/>
<path d="M98.1833 61.332H89.3738V67.7541H98.1833V61.332Z" fill="white"/>
<path d="M109.929 61.332H101.12V67.7541H109.929V61.332Z" fill="white"/>
<path d="M41.1877 79.6562H32.3782V86.0783H41.1877V79.6562Z" fill="white"/>
<path d="M52.9296 79.6562H44.1201V86.0783H52.9296V79.6562Z" fill="white"/>
<path d="M69.2927 79.6562H60.4832V86.0783H69.2927V79.6562Z" fill="white"/>
<path d="M81.0385 79.6562H72.229V86.0783H81.0385V79.6562Z" fill="white"/>
<path d="M98.1833 79.6562H89.3738V86.0783H98.1833V79.6562Z" fill="white"/>
<path d="M109.929 79.6562H101.12V86.0783H109.929V79.6562Z" fill="white"/>
<path d="M41.1877 90.9336H32.3782V97.3557H41.1877V90.9336Z" fill="white"/>
<path d="M52.9296 90.9336H44.1201V97.3557H52.9296V90.9336Z" fill="white"/>
<path d="M69.2927 90.9336H60.4832V97.3557H69.2927V90.9336Z" fill="white"/>
<path d="M81.0385 90.9336H72.229V97.3557H81.0385V90.9336Z" fill="white"/>
<path d="M98.1833 90.9336H89.3738V97.3557H98.1833V90.9336Z" fill="white"/>
<path d="M109.929 90.9336H101.12V97.3557H109.929V90.9336Z" fill="white"/>
<path d="M24.4296 36.1995C12.2552 36.1995 2.38916 46.0655 2.38916 58.24C2.38916 66.904 7.38871 74.3992 14.6551 78.0012C7.38871 81.6032 2.38916 89.0984 2.38916 97.7582C2.38916 109.933 12.2552 119.799 24.4296 119.799C33.0935 119.799 40.5887 114.803 44.1907 107.533C47.7927 114.803 55.2879 119.799 63.9518 119.799C76.1262 119.799 85.9922 109.929 85.9922 97.7582C85.9922 89.0942 80.9969 81.599 73.7263 77.997C80.9969 74.395 85.9922 66.8998 85.9922 58.2358C85.9922 46.0613 76.1221 36.1953 63.9518 36.1953C55.2879 36.1953 47.7927 41.1949 44.1907 48.4613C40.5887 41.1907 33.0935 36.1953 24.4296 36.1953V36.1995Z" fill="url(#paint1_linear_902_7511)"/>
<path d="M39.4578 61.4258C39.4578 61.4258 40.6141 63.5803 44.0164 63.5803C47.4188 63.5803 48.6957 61.4882 48.6957 61.4882" stroke="black" stroke-width="1.53684" stroke-miterlimit="10" stroke-linecap="round"/>
<path d="M47.0522 53.4219V58.7459" stroke="black" stroke-width="1.53684" stroke-miterlimit="10" stroke-linecap="round"/>
<path d="M41.2959 53.4219V58.7459" stroke="black" stroke-width="1.53684" stroke-miterlimit="10" stroke-linecap="round"/>
</g>
<defs>
<radialGradient id="paint0_radial_902_7511" cx="0" cy="0" r="1" gradientUnits="userSpaceOnUse" gradientTransform="translate(64.1765 60.3311) scale(66.9033 66.9035)">
<stop offset="0.17" stop-color="white"/>
<stop offset="0.76" stop-color="#49CA7F"/>
</radialGradient>
<linearGradient id="paint1_linear_902_7511" x1="7.78384" y1="32.639" x2="76.4219" y2="118.151" gradientUnits="userSpaceOnUse">
<stop stop-color="#9CE0B9"/>
<stop offset="1" stop-color="#49CA7F"/>
</linearGradient>
</defs>
</svg>
